<mxfile host="65bd71144e">
    <diagram id="e6vD2oS1DbETtmGQz-gL" name="Page-1">
        <mxGraphModel dx="733" dy="479" grid="1" gridSize="10" guides="1" tooltips="1" connect="1" arrows="1" fold="1" page="1" pageScale="1" pageWidth="1600" pageHeight="900" math="0" shadow="0">
            <root>
                <mxCell id="0"/>
                <mxCell id="1" parent="0"/>
                <mxCell id="42" value="" style="edgeStyle=elbowEdgeStyle;html=1;fontSize=10;fontColor=#FFFFFF;fillColor=#e1d5e7;strokeColor=#9673a6;exitX=1;exitY=0.5;exitDx=0;exitDy=0;entryX=0;entryY=0.5;entryDx=0;entryDy=0;" parent="1" source="24" target="40" edge="1">
                    <mxGeometry relative="1" as="geometry">
                        <mxPoint x="300" y="225" as="sourcePoint"/>
                        <mxPoint x="370" y="225" as="targetPoint"/>
                        <Array as="points">
                            <mxPoint x="320" y="240"/>
                        </Array>
                    </mxGeometry>
                </mxCell>
                <mxCell id="43" value="&lt;br&gt;&lt;b&gt;&lt;br&gt;&lt;/b&gt;" style="edgeLabel;html=1;align=center;verticalAlign=middle;resizable=0;points=[];fontSize=10;fontColor=#E6DAB8;rotation=-90;" parent="42" vertex="1" connectable="0">
                    <mxGeometry x="-0.1685" y="-3" relative="1" as="geometry">
                        <mxPoint x="-13" y="44" as="offset"/>
                    </mxGeometry>
                </mxCell>
                <mxCell id="38" value="" style="edgeStyle=elbowEdgeStyle;html=1;fontSize=10;fontColor=#FFFFFF;fillColor=#e1d5e7;strokeColor=#9673a6;exitX=1;exitY=0.5;exitDx=0;exitDy=0;entryX=0;entryY=0.5;entryDx=0;entryDy=0;" parent="1" source="24" target="35" edge="1">
                    <mxGeometry relative="1" as="geometry">
                        <mxPoint x="330" y="225" as="sourcePoint"/>
                        <mxPoint x="365.55999999999995" y="168.31999999999994" as="targetPoint"/>
                        <Array as="points">
                            <mxPoint x="350" y="190"/>
                        </Array>
                    </mxGeometry>
                </mxCell>
                <mxCell id="39" value="&lt;br&gt;&lt;b&gt;&lt;br&gt;&lt;/b&gt;" style="edgeLabel;html=1;align=center;verticalAlign=middle;resizable=0;points=[];fontSize=10;fontColor=#E6DAB8;rotation=-90;" parent="38" vertex="1" connectable="0">
                    <mxGeometry x="-0.1685" y="-3" relative="1" as="geometry">
                        <mxPoint x="-13" y="44" as="offset"/>
                    </mxGeometry>
                </mxCell>
                <mxCell id="7" value="" style="rounded=1;html=1;jettySize=auto;orthogonalLoop=1;fontSize=11;endArrow=classicThin;endFill=1;endSize=8;strokeWidth=1;shadow=0;labelBackgroundColor=none;edgeStyle=orthogonalEdgeStyle;fillColor=#b0e3e6;strokeColor=default;entryX=0;entryY=0.5;entryDx=0;entryDy=0;exitX=1;exitY=0.5;exitDx=0;exitDy=0;" parent="1" source="8" target="11" edge="1">
                    <mxGeometry relative="1" as="geometry"/>
                </mxCell>
                <mxCell id="qHMO0wPJiTJIwnHE1Til-24" style="edgeStyle=orthogonalEdgeStyle;rounded=1;html=1;exitX=1;exitY=0.5;exitDx=0;exitDy=0;entryX=0;entryY=0.5;entryDx=0;entryDy=0;fillColor=#b0e3e6;strokeColor=#0e8088;" parent="1" source="8" target="15" edge="1">
                    <mxGeometry relative="1" as="geometry"/>
                </mxCell>
                <mxCell id="8" value="Lamp doesn't work" style="rounded=1;whiteSpace=wrap;html=1;fontSize=12;glass=0;strokeWidth=1;shadow=0;fillColor=#b0e3e6;strokeColor=#0e8088;arcSize=0;" parent="1" vertex="1">
                    <mxGeometry x="1020" y="185" width="120" height="40" as="geometry"/>
                </mxCell>
                <mxCell id="10" value="No" style="edgeStyle=orthogonalEdgeStyle;rounded=1;html=1;jettySize=auto;orthogonalLoop=1;fontSize=11;endArrow=block;endFill=0;endSize=8;strokeWidth=1;shadow=0;labelBackgroundColor=none;fillColor=#b1ddf0;strokeColor=#10739e;" parent="1" source="11" target="12" edge="1">
                    <mxGeometry y="10" relative="1" as="geometry">
                        <mxPoint as="offset"/>
                    </mxGeometry>
                </mxCell>
                <mxCell id="11" value="Lamp&lt;br&gt;plugged in?" style="rhombus;whiteSpace=wrap;html=1;shadow=0;fontFamily=Helvetica;fontSize=12;align=center;strokeWidth=1;spacing=6;spacingTop=-4;rounded=1;fillColor=#b1ddf0;strokeColor=#10739e;" parent="1" vertex="1">
                    <mxGeometry x="1180" y="90" width="100" height="80" as="geometry"/>
                </mxCell>
                <mxCell id="12" value="Plug in lamp" style="rounded=1;whiteSpace=wrap;html=1;fontSize=12;glass=0;strokeWidth=1;shadow=0;fillColor=#b1ddf0;strokeColor=#10739e;" parent="1" vertex="1">
                    <mxGeometry x="1340" y="110" width="120" height="40" as="geometry"/>
                </mxCell>
                <mxCell id="14" value="Yes" style="edgeStyle=orthogonalEdgeStyle;rounded=1;html=1;jettySize=auto;orthogonalLoop=1;fontSize=11;endArrow=block;endFill=0;endSize=8;strokeWidth=1;shadow=0;labelBackgroundColor=none;fillColor=#fad7ac;strokeColor=#b46504;" parent="1" source="15" target="17" edge="1">
                    <mxGeometry y="10" relative="1" as="geometry">
                        <mxPoint as="offset"/>
                    </mxGeometry>
                </mxCell>
                <mxCell id="15" value="Bulb&lt;br&gt;burned out?" style="rhombus;whiteSpace=wrap;html=1;shadow=0;fontFamily=Helvetica;fontSize=12;align=center;strokeWidth=1;spacing=6;spacingTop=-4;rounded=1;fillColor=#ffe6cc;strokeColor=#d79b00;" parent="1" vertex="1">
                    <mxGeometry x="1180" y="235" width="100" height="80" as="geometry"/>
                </mxCell>
                <mxCell id="17" value="Replace Bulb" style="rounded=1;whiteSpace=wrap;html=1;fontSize=12;glass=0;strokeWidth=1;shadow=0;fillColor=#ffe6cc;strokeColor=#d79b00;" parent="1" vertex="1">
                    <mxGeometry x="1340" y="255" width="120" height="40" as="geometry"/>
                </mxCell>
                <mxCell id="23" style="edgeStyle=none;html=1;exitX=0.5;exitY=1;exitDx=0;exitDy=0;entryX=0.5;entryY=0;entryDx=0;entryDy=0;fontColor=#FFFFFF;" parent="1" source="18" target="21" edge="1">
                    <mxGeometry relative="1" as="geometry"/>
                </mxCell>
                <mxCell id="18" value="Train Dataset" style="ellipse;whiteSpace=wrap;html=1;fillColor=#4D4D4D;strokeColor=#333333;fontColor=#FFFFFF;" parent="1" vertex="1">
                    <mxGeometry x="25" y="115" width="110" height="40" as="geometry"/>
                </mxCell>
                <mxCell id="25" style="edgeStyle=none;html=1;exitX=1;exitY=0.5;exitDx=0;exitDy=0;entryX=0;entryY=0.5;entryDx=0;entryDy=0;fontColor=#FFFFFF;fillColor=#f5f5f5;strokeColor=#666666;" parent="1" source="21" target="24" edge="1">
                    <mxGeometry relative="1" as="geometry"/>
                </mxCell>
                <mxCell id="21" value="&lt;b&gt;Drop Features&amp;nbsp; &lt;br&gt;&lt;/b&gt;based on EDA" style="rounded=1;whiteSpace=wrap;html=1;fontSize=12;glass=0;strokeWidth=1;shadow=0;fillColor=#f5f5f5;strokeColor=#B5B5B5;arcSize=0;fontColor=#333333;" parent="1" vertex="1">
                    <mxGeometry x="20" y="195" width="120" height="40" as="geometry"/>
                </mxCell>
                <mxCell id="24" value="&lt;b&gt;Split Train/Test&lt;/b&gt;&lt;br&gt;&lt;font style=&quot;font-size: 10px;&quot;&gt;75% / 25%&lt;b&gt;&amp;nbsp;&lt;/b&gt;&lt;/font&gt;" style="shape=hexagon;perimeter=hexagonPerimeter2;whiteSpace=wrap;html=1;fixedSize=1;fillColor=#e1d5e7;strokeColor=#9673a6;rounded=1;glass=0;strokeWidth=1;shadow=0;arcSize=0;" parent="1" vertex="1">
                    <mxGeometry x="170" y="187.5" width="120" height="55" as="geometry"/>
                </mxCell>
                <mxCell id="28" value="&lt;b&gt;Numerical&lt;/b&gt;" style="whiteSpace=wrap;html=1;fillColor=#dae8fc;strokeColor=#6c8ebf;rounded=1;glass=0;strokeWidth=1;shadow=0;arcSize=0;" parent="1" vertex="1">
                    <mxGeometry x="360" y="70" width="110" height="20" as="geometry"/>
                </mxCell>
                <mxCell id="36" value="" style="edgeStyle=elbowEdgeStyle;html=1;fontSize=10;fontColor=#FFFFFF;fillColor=#e1d5e7;strokeColor=#9673a6;exitX=1;exitY=0.5;exitDx=0;exitDy=0;entryX=-0.037;entryY=0.444;entryDx=0;entryDy=0;entryPerimeter=0;" parent="1" source="24" target="32" edge="1">
                    <mxGeometry relative="1" as="geometry">
                        <mxPoint x="330" y="225" as="sourcePoint"/>
                        <mxPoint x="370" y="90" as="targetPoint"/>
                        <Array as="points">
                            <mxPoint x="320" y="190"/>
                        </Array>
                    </mxGeometry>
                </mxCell>
                <mxCell id="37" value="&lt;br&gt;&lt;b&gt;&lt;br&gt;&lt;/b&gt;" style="edgeLabel;html=1;align=center;verticalAlign=middle;resizable=0;points=[];fontSize=10;fontColor=#E6DAB8;rotation=-90;" parent="36" vertex="1" connectable="0">
                    <mxGeometry x="-0.1685" y="-3" relative="1" as="geometry">
                        <mxPoint x="-13" y="44" as="offset"/>
                    </mxGeometry>
                </mxCell>
                <mxCell id="32" value="&lt;p style=&quot;line-height: 70%;&quot;&gt;&lt;b&gt;Target&lt;/b&gt;&lt;br&gt;&lt;font style=&quot;font-size: 8px;&quot;&gt;Claim Injury Type&lt;/font&gt;&lt;/p&gt;" style="whiteSpace=wrap;html=1;fillColor=#f8cecc;strokeColor=#b85450;rounded=1;glass=0;strokeWidth=1;shadow=0;arcSize=0;" parent="1" vertex="1">
                    <mxGeometry x="360" y="140" width="110" height="30" as="geometry"/>
                </mxCell>
                <mxCell id="34" value="&lt;p style=&quot;line-height: 63%;&quot;&gt;&lt;font style=&quot;font-size: 6px;&quot;&gt;Accident Date&lt;br&gt;Age at Injury Clean&lt;br&gt;Assembly Date&lt;br&gt;C-2 Date&lt;br&gt;Number of Dependents&lt;/font&gt;&lt;br&gt;&lt;/p&gt;" style="shape=partialRectangle;whiteSpace=wrap;html=1;left=0;right=0;fillColor=none;strokeColor=#6c8ebf;fontSize=10;" parent="1" vertex="1">
                    <mxGeometry x="360" y="90" width="110" height="40" as="geometry"/>
                </mxCell>
                <mxCell id="35" value="&lt;p style=&quot;line-height: 70%;&quot;&gt;&lt;b&gt;Ordinal&lt;/b&gt;&lt;br&gt;&lt;font style=&quot;font-size: 8px;&quot;&gt;Age at Injury Group&lt;/font&gt;&lt;/p&gt;" style="whiteSpace=wrap;html=1;fillColor=#ffcc99;strokeColor=#DEB185;rounded=1;glass=0;strokeWidth=1;shadow=0;arcSize=0;" parent="1" vertex="1">
                    <mxGeometry x="360" y="190" width="110" height="30" as="geometry"/>
                </mxCell>
                <mxCell id="29" value="" style="edgeStyle=elbowEdgeStyle;html=1;fontSize=10;fontColor=#FFFFFF;fillColor=#e1d5e7;strokeColor=#9673a6;" parent="1" source="24" target="28" edge="1">
                    <mxGeometry relative="1" as="geometry">
                        <Array as="points">
                            <mxPoint x="320" y="140"/>
                        </Array>
                    </mxGeometry>
                </mxCell>
                <mxCell id="30" value="&lt;b&gt;Columns by Variable Type&lt;/b&gt;" style="edgeLabel;html=1;align=center;verticalAlign=middle;resizable=0;points=[];fontSize=10;fontColor=#E5CCFF;rotation=-90;" parent="29" vertex="1" connectable="0">
                    <mxGeometry x="-0.1685" y="-3" relative="1" as="geometry">
                        <mxPoint x="-13" y="44" as="offset"/>
                    </mxGeometry>
                </mxCell>
                <mxCell id="40" value="&lt;b&gt;Nominal&lt;/b&gt;" style="whiteSpace=wrap;html=1;fillColor=#fff2cc;strokeColor=#d6b656;rounded=1;glass=0;strokeWidth=1;shadow=0;arcSize=0;" parent="1" vertex="1">
                    <mxGeometry x="360" y="235" width="110" height="20" as="geometry"/>
                </mxCell>
                <mxCell id="41" value="&lt;p style=&quot;line-height: 73%;&quot;&gt;&lt;font style=&quot;&quot;&gt;&lt;font style=&quot;font-size: 6px;&quot;&gt;Alternative Dispute Resolution Attorney/Representative&lt;br&gt;COVID-19 Indicatior&lt;br&gt;Carrier Type&lt;br&gt;Carrier Type Bucket&lt;br&gt;County of Injury&lt;br&gt;District Name&lt;br&gt;Gender&lt;br&gt;Industry Code Description&lt;br&gt;Medical Fee Region &lt;br&gt;WCIO Cause of Injury Bucket &lt;br&gt;WCIO Cause of Injury Description &lt;br&gt;WCIO Nature of Injury Bucket &lt;br&gt;WCIO Nature of Injury Description &lt;br&gt;WCIO Part of Body Bucket &lt;br&gt;WCIO Part of Body Description&lt;/font&gt;&lt;br&gt;&lt;/font&gt;&lt;/p&gt;" style="shape=partialRectangle;whiteSpace=wrap;html=1;left=0;right=0;fillColor=none;strokeColor=#d6b656;fontSize=10;" parent="1" vertex="1">
                    <mxGeometry x="360" y="255" width="110" height="145" as="geometry"/>
                </mxCell>
            </root>
        </mxGraphModel>
    </diagram>
</mxfile>